<?xml version="1.0" encoding="utf-8"?>
<!-- Generator: Adobe Illustrator 24.2.3, SVG Export Plug-In . SVG Version: 6.00 Build 0)  -->
<svg version="1.1" id="Layer_1" xmlns="http://www.w3.org/2000/svg" xmlns:xlink="http://www.w3.org/1999/xlink" x="0px" y="0px"
	 width="175px" height="36px" viewBox="0 0 175 36" style="enable-background:new 0 0 175 36;" xml:space="preserve">
<style type="text/css">
	.st0{fill:#2783FF;}
	.st1{fill:#4D4D4F;}
</style>
<g>
	<g>
		<path class="st0" d="M18.36,34.84L18.36,34.84c-2.76-2.76-2.76-7.23,0-9.98L42.05,1.16l0,0c2.76,2.76,2.76,7.23,0,9.98
			L18.36,34.84z"/>
		<path class="st0" d="M10.08,27.51L10.08,27.51c-2.76-2.76-2.76-7.23,0-9.98L26.45,1.16l0,0c2.76,2.76,2.76,7.23,0,9.98
			L10.08,27.51z"/>
		<path class="st0" d="M2.07,19.94L2.07,19.94c-2.76-2.76-2.76-7.23,0-9.98l8.8-8.8l0,0c2.76,2.76,2.76,7.23,0,9.98L2.07,19.94z"/>
	</g>
	<g>
		<path class="st1" d="M60.81,8.16l2.02,13.68h0.06l1.38-13.68h4.98l-3.38,19.77h-5.65l-1.72-13.29h-0.06l-1.72,13.29h-5.65
			L47.71,8.16h4.98l1.55,13.68h0.06l1.86-13.68H60.81z"/>
		<path class="st1" d="M74.29,23.25c0,0.81,0.14,1.35,0.42,1.62c0.28,0.27,0.59,0.4,0.94,0.4c0.44,0,0.79-0.18,1.04-0.54
			c0.25-0.36,0.37-1.05,0.37-2.06h4.49c-0.04,1.85-0.51,3.24-1.41,4.17c-0.9,0.93-2.39,1.4-4.46,1.4c-1.2,0-2.21-0.13-3.02-0.4
			c-0.81-0.27-1.47-0.71-1.97-1.33c-0.5-0.62-0.85-1.43-1.07-2.42c-0.21-1-0.32-2.21-0.32-3.63c0-1.44,0.12-2.66,0.36-3.66
			c0.24-1,0.62-1.81,1.14-2.44c0.52-0.63,1.18-1.08,1.98-1.37c0.8-0.29,1.77-0.43,2.89-0.43c1,0,1.87,0.12,2.62,0.36
			c0.75,0.24,1.37,0.64,1.88,1.2c0.51,0.56,0.89,1.3,1.14,2.22c0.25,0.91,0.37,2.05,0.37,3.42v1.52h-7.39V23.25z M76.74,16.16
			c-0.19-0.37-0.56-0.55-1.09-0.55c-0.52,0-0.87,0.18-1.07,0.55c-0.19,0.37-0.29,0.95-0.29,1.74v0.66h2.74V17.9
			C77.03,17.11,76.94,16.53,76.74,16.16z"/>
		<path class="st1" d="M90.16,27.12c-0.04-0.28-0.07-0.57-0.11-0.89h-0.06c-0.28,0.66-0.72,1.16-1.32,1.5
			c-0.6,0.33-1.29,0.5-2.06,0.5c-0.76,0-1.4-0.1-1.92-0.29c-0.53-0.19-0.96-0.48-1.29-0.87c-0.33-0.39-0.57-0.85-0.72-1.38
			c-0.15-0.54-0.22-1.13-0.22-1.77c0-0.7,0.07-1.31,0.21-1.83c0.14-0.52,0.36-0.96,0.68-1.34c0.31-0.38,0.74-0.7,1.27-0.97
			c0.54-0.27,1.2-0.49,1.99-0.68l1.97-0.47c0.54-0.13,0.91-0.32,1.14-0.57c0.22-0.25,0.33-0.6,0.33-1.07c0-0.92-0.42-1.38-1.27-1.38
			c-0.48,0-0.83,0.13-1.05,0.4c-0.22,0.27-0.34,0.8-0.36,1.59h-4.32c0-1.09,0.19-1.96,0.58-2.62c0.39-0.66,0.87-1.16,1.44-1.52
			c0.57-0.36,1.19-0.6,1.86-0.72c0.66-0.12,1.28-0.18,1.86-0.18c0.87,0,1.67,0.07,2.4,0.21c0.73,0.14,1.36,0.39,1.88,0.75
			c0.53,0.36,0.93,0.85,1.22,1.47c0.29,0.62,0.43,1.42,0.43,2.4v7.31c0,0.7,0.03,1.32,0.08,1.86c0.06,0.54,0.18,1,0.39,1.38h-4.82
			C90.26,27.67,90.2,27.4,90.16,27.12z M89.69,24.35c0.24-0.41,0.36-1.02,0.36-1.86v-1.8h-0.06c-0.15,0.2-0.37,0.33-0.68,0.37
			c-0.3,0.05-0.64,0.15-1.01,0.32c-0.39,0.18-0.66,0.43-0.8,0.73c-0.15,0.3-0.22,0.71-0.22,1.2c0,0.5,0.11,0.9,0.33,1.19
			c0.22,0.3,0.52,0.44,0.89,0.44C89.05,24.96,89.45,24.76,89.69,24.35z"/>
		<path class="st1" d="M101.98,8.16v19.77H97V8.16H101.98z"/>
		<path class="st1" d="M104.78,12.95v-4.4h4.98v4.4h1.97v3.35h-1.97v7.14c0,0.42,0.1,0.72,0.29,0.9c0.19,0.18,0.49,0.26,0.9,0.26
			h0.78v3.32c-0.46,0-0.92,0.01-1.38,0.04c-0.46,0.03-0.9,0.04-1.33,0.04c-0.76,0-1.4-0.03-1.94-0.1c-0.54-0.06-0.97-0.23-1.32-0.48
			c-0.34-0.26-0.59-0.64-0.75-1.15c-0.16-0.51-0.24-1.18-0.24-2.01V16.3h-1.66v-3.35H104.78z"/>
		<path class="st1" d="M117.77,8.16v6.45h0.06c0.42-0.79,0.96-1.33,1.59-1.62c0.64-0.29,1.26-0.43,1.87-0.43
			c0.52,0,1.01,0.06,1.48,0.19c0.47,0.13,0.89,0.35,1.25,0.66c0.36,0.31,0.65,0.73,0.86,1.26c0.21,0.53,0.32,1.18,0.32,1.95v11.3
			h-4.98v-9.89c0-0.63-0.09-1.08-0.28-1.36c-0.18-0.28-0.5-0.42-0.94-0.42c-0.44,0-0.76,0.14-0.94,0.42
			c-0.18,0.28-0.28,0.73-0.28,1.36v9.89h-4.98V8.16H117.77z"/>
		<path class="st1" d="M126.18,16.3v-3.35h1.72v-1.08c0-0.76,0.08-1.39,0.24-1.91c0.16-0.52,0.42-0.94,0.78-1.26
			c0.36-0.32,0.84-0.56,1.43-0.71c0.59-0.15,1.32-0.22,2.19-0.22c0.37,0,0.76,0.01,1.18,0.04c0.42,0.03,0.82,0.07,1.2,0.12v3.13
			c-0.13-0.04-0.25-0.06-0.37-0.07c-0.12-0.01-0.27-0.01-0.46-0.01c-0.31,0-0.59,0.08-0.83,0.25c-0.24,0.17-0.36,0.43-0.36,0.8v0.91
			h2.02v3.35h-2.02v11.63h-4.98V16.3H126.18z"/>
		<path class="st1" d="M142.99,27.12c-0.04-0.28-0.07-0.57-0.11-0.89h-0.06c-0.28,0.66-0.72,1.16-1.32,1.5
			c-0.6,0.33-1.29,0.5-2.06,0.5c-0.76,0-1.4-0.1-1.92-0.29c-0.53-0.19-0.96-0.48-1.29-0.87c-0.33-0.39-0.57-0.85-0.72-1.38
			c-0.15-0.54-0.22-1.13-0.22-1.77c0-0.7,0.07-1.31,0.21-1.83c0.14-0.52,0.36-0.96,0.68-1.34c0.31-0.38,0.74-0.7,1.27-0.97
			c0.54-0.27,1.2-0.49,1.99-0.68l1.97-0.47c0.54-0.13,0.91-0.32,1.14-0.57c0.22-0.25,0.33-0.6,0.33-1.07c0-0.92-0.43-1.38-1.27-1.38
			c-0.48,0-0.83,0.13-1.05,0.4c-0.22,0.27-0.34,0.8-0.36,1.59h-4.32c0-1.09,0.19-1.96,0.58-2.62c0.39-0.66,0.87-1.16,1.44-1.52
			c0.57-0.36,1.19-0.6,1.86-0.72c0.66-0.12,1.28-0.18,1.86-0.18c0.87,0,1.67,0.07,2.4,0.21c0.73,0.14,1.36,0.39,1.88,0.75
			c0.53,0.36,0.93,0.85,1.22,1.47c0.29,0.62,0.43,1.42,0.43,2.4v7.31c0,0.7,0.03,1.32,0.08,1.86c0.06,0.54,0.18,1,0.39,1.38h-4.82
			C143.09,27.67,143.03,27.4,142.99,27.12z M142.52,24.35c0.24-0.41,0.36-1.02,0.36-1.86v-1.8h-0.06c-0.15,0.2-0.37,0.33-0.68,0.37
			c-0.3,0.05-0.64,0.15-1.01,0.32c-0.39,0.18-0.66,0.43-0.8,0.73c-0.15,0.3-0.22,0.71-0.22,1.2c0,0.5,0.11,0.9,0.33,1.19
			c0.22,0.3,0.52,0.44,0.89,0.44C141.88,24.96,142.28,24.76,142.52,24.35z"/>
		<path class="st1" d="M157.11,17.34c-0.06-0.38-0.14-0.69-0.25-0.93c-0.2-0.42-0.57-0.64-1.11-0.64c-0.28,0-0.51,0.07-0.71,0.21
			c-0.19,0.14-0.35,0.39-0.46,0.75c-0.11,0.36-0.19,0.84-0.24,1.44c-0.05,0.6-0.07,1.36-0.07,2.28c0,0.92,0.02,1.68,0.07,2.28
			c0.05,0.6,0.12,1.08,0.24,1.43c0.11,0.35,0.26,0.6,0.46,0.73c0.19,0.14,0.43,0.21,0.71,0.21c0.46,0,0.82-0.18,1.07-0.53
			c0.25-0.35,0.37-1,0.37-1.94v-0.97h4.49c0,1.18-0.1,2.19-0.3,3.02c-0.2,0.83-0.54,1.51-1.02,2.05c-0.94,1-2.47,1.5-4.6,1.5
			c-0.96,0-1.84-0.08-2.63-0.25c-0.79-0.17-1.47-0.52-2.04-1.07c-0.56-0.54-1-1.31-1.32-2.3c-0.31-0.99-0.47-2.29-0.47-3.92
			c0-1.77,0.18-3.19,0.53-4.26c0.35-1.07,0.83-1.89,1.43-2.46c0.6-0.57,1.31-0.95,2.12-1.14c0.81-0.18,1.69-0.28,2.63-0.28
			c1.11,0,2.03,0.15,2.76,0.46c0.73,0.3,1.31,0.73,1.74,1.27c0.43,0.54,0.74,1.2,0.91,1.97c0.18,0.77,0.26,1.62,0.26,2.56h-4.49
			C157.2,18.21,157.17,17.71,157.11,17.34z"/>
		<path class="st1" d="M167.61,23.25c0,0.81,0.14,1.35,0.42,1.62c0.28,0.27,0.59,0.4,0.94,0.4c0.44,0,0.79-0.18,1.04-0.54
			s0.37-1.05,0.37-2.06h4.49c-0.04,1.85-0.51,3.24-1.41,4.17c-0.9,0.93-2.39,1.4-4.46,1.4c-1.2,0-2.21-0.13-3.02-0.4
			c-0.81-0.27-1.47-0.71-1.97-1.33c-0.5-0.62-0.85-1.43-1.07-2.42c-0.21-1-0.32-2.21-0.32-3.63c0-1.44,0.12-2.66,0.36-3.66
			c0.24-1,0.62-1.81,1.14-2.44c0.52-0.63,1.18-1.08,1.98-1.37c0.8-0.29,1.77-0.43,2.89-0.43c1,0,1.87,0.12,2.62,0.36
			c0.75,0.24,1.38,0.64,1.88,1.2c0.51,0.56,0.89,1.3,1.14,2.22c0.25,0.91,0.37,2.05,0.37,3.42v1.52h-7.39V23.25z M170.06,16.16
			c-0.19-0.37-0.56-0.55-1.09-0.55c-0.52,0-0.87,0.18-1.07,0.55c-0.19,0.37-0.29,0.95-0.29,1.74v0.66h2.74V17.9
			C170.35,17.11,170.25,16.53,170.06,16.16z"/>
	</g>
</g>
</svg>
